<svg id="Calque_1" data-name="Calque 1" xmlns="http://www.w3.org/2000/svg" viewBox="0 0 133.28 19.89"><defs><style>.cls-1{isolation:isolate;}.cls-2{fill:#fff;}</style></defs><g class="cls-1"><g class="cls-1"><path class="cls-2" d="M120.37,15V10.32h2c1.06,0,1.44.26,1.44,1,0,.13,0,.2,0,.55h.68V8h-.68a3.89,3.89,0,0,1,0,.42c0,.87-.32,1.11-1.43,1.11h-2v-4a8.08,8.08,0,0,1,1.85-.19c2.27,0,3,.39,3.26,1.85l.68-.12-.44-2.45h-10v.6a2.63,2.63,0,0,1,.71-.07c1.38,0,1.65.46,1.65,2.8v4.69c0,2.3-.29,2.81-1.61,2.81a4.73,4.73,0,0,1-.9-.09V16h10.29L126.88,13l-.72-.25L126,13c-.7,1.63-1.32,2-3.21,2h-2.45Zm-5.63-4.24h.18v-.67h-5.66v.67h.13l.42,0c.79,0,1.09.33,1.09,1.21v3.13a4.8,4.8,0,0,1-1.84.33c-2.76,0-4.71-2.25-4.71-5.43,0-3,1.76-5,4.41-5,1.87,0,3,.91,3.75,3l.85-.16-.57-2.89-.4-.07-.89-.11-1-.16a14.35,14.35,0,0,0-2.19-.18c-4,0-6.47,2.32-6.47,6a5.67,5.67,0,0,0,6,5.88,13.91,13.91,0,0,0,3.37-.47c.58-.13,1.3-.27,2-.4,0-1-.07-2.16-.07-3,0-1.4.22-1.7,1.24-1.7h.08ZM99.84,9.66c0-3.33-2.1-5.09-6.07-5.09l-1.37,0-1,0-.82,0h-4v.6a3.21,3.21,0,0,1,.76-.07c1.41,0,1.67.44,1.67,2.8v4.69c0,2.33-.27,2.81-1.63,2.81a5.21,5.21,0,0,1-.93-.09V16h5l1.26,0c4.25,0,7-2.51,7-6.39m-2.54.22c0,3.35-1.58,5.49-4.07,5.49a5.13,5.13,0,0,1-1.78-.32V5.53a5.33,5.33,0,0,1,1.74-.29c2.61,0,4.11,1.7,4.11,4.64M77.9,16h7.47V15.4a5.23,5.23,0,0,1-.94.09c-1.36,0-1.64-.48-1.64-2.81V8c0-2.36.26-2.8,1.67-2.8a3.92,3.92,0,0,1,.84.07v-.6H78.06v.6a2.8,2.8,0,0,1,.72-.07c1.38,0,1.64.43,1.64,2.8v4.69c0,2.35-.27,2.81-1.63,2.81a5.15,5.15,0,0,1-.89-.09Zm-1.79,0h1.23V15.4a3.06,3.06,0,0,1-.51,0c-.9,0-1.52-.63-2.62-2.67a4.89,4.89,0,0,0-2.37-2.58c1.94-.22,3-1.2,3-2.89S73.53,4.57,71,4.57l-1.18,0-.87,0-.85,0H64.32v.6A3.45,3.45,0,0,1,65,5.19c1.24,0,1.62.53,1.62,2.24v5.8c0,1.71-.39,2.25-1.63,2.26a5.06,5.06,0,0,1-.89-.09V16h7.12V15.4a3.65,3.65,0,0,1-.77.09c-1.35,0-1.62-.46-1.62-2.81v-2c1.34,0,1.86.48,3.06,2.74l.46.87C73.12,15.68,73.6,16,74.71,16h.49l.55,0Zm-6.49-5.9c-.25,0-.4,0-.75,0V5.36a4.43,4.43,0,0,1,1.26-.21A2.17,2.17,0,0,1,72.37,7.5c0,1.69-1,2.61-2.75,2.61m-10.54-.3C61,9.39,62,8.44,62,7s-1.24-2.42-3.31-2.42l-1.11,0c-1,0-1.61.06-2,.06H51.54v.6a2.79,2.79,0,0,1,.69-.07c1.39,0,1.65.43,1.65,2.8v4.69c0,2.34-.27,2.81-1.62,2.81a4.71,4.71,0,0,1-.89-.09V16H55.3l1.11,0,1.08,0c3.21,0,4.95-1.21,4.95-3.43,0-1.74-1.07-2.64-3.36-2.81M57,9.65a6.27,6.27,0,0,1-.88-.07V5.44a3.65,3.65,0,0,1,1.28-.26,2.08,2.08,0,0,1,2.28,2A2.52,2.52,0,0,1,57,9.65m3,2.92A2.52,2.52,0,0,1,57.5,15.3a5.62,5.62,0,0,1-1.36-.17V10.37a4.68,4.68,0,0,1,.94-.1c1.87,0,2.93.83,2.93,2.3M43.79,16h6.44V15.4a3.87,3.87,0,0,1-.72.09c-1.15,0-1.42-.54-1.42-2.81V8c0-2.38.22-2.8,1.46-2.8a2.8,2.8,0,0,1,.61.07v-.6h-4.5l-.21.48-.74,1.68-.9,2L43,10.69c-.47,1-.63,1.35-1.08,2.22l-.27-.56-.78-1.58L40,9.12c-.14-.3-.46-.95-1-2s-.75-1.5-1.21-2.49H33.73v.6a1.61,1.61,0,0,1,.51-.07c1.09,0,1.35.43,1.35,2.24v5.25c0,2.28-.26,2.81-1.39,2.81a2.7,2.7,0,0,1-.55-.09V16h5V15.4a1.14,1.14,0,0,1-.48.09c-1.18,0-1.57-.56-1.57-2.26V7l.42.82c.14.27.44.89.92,1.87l.91,1.88c.68,1.4.84,1.74,1.77,3.79l.25.56h.74c.09-.23.16-.39.21-.51s.35-.82.86-2l1-2.23.9-1.94.8-1.74c.08-.14.18-.36.33-.64v5.78c0,2.23-.28,2.81-1.35,2.81a1.72,1.72,0,0,1-.52-.09ZM26.93,16h6.28V15.4a1.61,1.61,0,0,1-.51.09c-1.21,0-1.68-.76-3.77-6.06l-.12-.3L26.75,4h-.51l-3.38,8.11-.17.41-.29.7c-.75,1.81-1.19,2.29-2.1,2.29a2,2,0,0,1-.53-.08V16h5V15.4a2.27,2.27,0,0,1-.66.09c-.67,0-1.07-.27-1.07-.73a1.46,1.46,0,0,1,.07-.4l.12-.31.1-.27.53-1.39h3.86l.68,1.82a1.84,1.84,0,0,1,.14.57c0,.48-.31.71-1,.71a2,2,0,0,1-.63-.09Zm.46-4.45H24.14l1.66-4ZM7.08,9.92c0-3.85,2.42-6.73,5.67-6.73A5.3,5.3,0,0,1,18.1,7.27l1-.2-.73-3.73-.42-.16A13.08,13.08,0,0,0,12.36,2C7.33,2,4,5.11,4,9.79,4,14.66,7.45,18,12.53,18A13.14,13.14,0,0,0,19,16.13l.41-3.6-1-.13c-.73,2.84-2.64,4.41-5.38,4.41-3.45,0-6-2.91-6-6.89"/></g></g></svg>