<?xml version="1.0" encoding="utf-8"?>
<!-- Generator: Adobe Illustrator 25.0.1, SVG Export Plug-In . SVG Version: 6.00 Build 0)  -->
<svg version="1.1" id="Calque_1" xmlns="http://www.w3.org/2000/svg" xmlns:xlink="http://www.w3.org/1999/xlink" x="0px" y="0px"
	 viewBox="0 0 73.28 53.89" style="enable-background:new 0 0 73.28 53.89;" xml:space="preserve">
<style type="text/css">
	.st0{enable-background:new    ;}
	.st1{clip-path:url(#SVGID_2_);fill:#72C2CF;}
</style>
<g class="st0">
	<g>
		<defs>
			<rect id="SVGID_1_" x="-0.11" y="-0.06" width="73.5" height="54"/>
		</defs>
		<clipPath id="SVGID_2_">
			<use xlink:href="#SVGID_1_"  style="overflow:visible;"/>
		</clipPath>
		<path class="st1" d="M2.22,53.89c14.7-3.73,30.33-13.77,30.33-30.33c0-14.93-11.9-23.57-21.93-23.57h-0.23
			c-3.97,0-10.03,2.8-10.03,8.87c0,3.03,1.63,4.43,3.03,4.67c7.93,1.4,14.7,6.3,14.7,14.7c0,9.57-6.77,14.7-18.2,19.6L2.22,53.89z
			 M43.05,53.89c14.7-3.73,30.33-13.77,30.33-30.33c0-14.93-11.9-23.57-21.93-23.57h-0.23c-3.97,0-10.03,2.8-10.03,8.87
			c0,3.03,1.87,4.43,3.27,4.67c7.7,1.4,14.47,6.3,14.47,14.7c0,9.57-6.77,14.7-18.2,19.6L43.05,53.89z"/>
	</g>
</g>
</svg>
